<?xml version="1.0" encoding="UTF-8"?>
<svg id="Layer_1" data-name="Layer 1" xmlns="http://www.w3.org/2000/svg" viewBox="0 0 1080 1080">
  <defs>
    <style>
      .cls-1 {
        fill: #43a347;
      }
    </style>
  </defs>
  <path class="cls-1" d="m533.31,645.51c23.24-110.55-145.06-189.39-345.05-301.68l1.74,322.9c.18,34.18,12.07,67.43,34.34,93.35,65.51,76.23,199.11,130.71,308.97,194.82,5.48-151.05-39.29-257.38-147.95-305.54,54.77,73.77,93.56,146.4,85.3,199.51-78.22-35.21-148.91-83.78-211.08-147.47l-7.23-251.08c112.98,53.24,211.65,115.22,280.96,195.18Z"/>
  <path class="cls-1" d="m594.91,645.51c-23.24-110.55,145.06-189.39,345.05-301.68l-1.74,322.9c-.18,34.18-12.07,67.43-34.34,93.35-65.51,76.23-199.11,130.71-308.97,194.82-5.48-151.05,39.29-257.38,147.95-305.54-54.77,73.77-93.56,146.4-85.3,199.51,78.22-35.21,148.91-83.78,211.08-147.47l7.23-251.08c-112.98,53.24-211.65,115.22-280.96,195.18Z"/>
  <path class="cls-1" d="m635.82,142.19c-87.64-71.29-234.8,42.22-426.21,168.59l287.85,146.32c30.47,15.49,65.47,20.15,98.72,12.22,97.77-23.33,207.38-117.14,314.68-185.45-131.77-74.05-246.8-82.94-339.37-8.4,90.66-14.9,172.99-16.13,216.43,15.54-67.12,53.41-142.67,94.01-227.76,120.11l-226.51-108.56c99.06-76.06,199.36-135.39,302.17-160.38Z"/>
</svg>